<?xml version="1.0" encoding="iso-8859-1"?>
<!-- Generator: Adobe Illustrator 19.0.0, SVG Export Plug-In . SVG Version: 6.00 Build 0)  -->
<svg version="1.1" id="Layer_1" xmlns="http://www.w3.org/2000/svg" xmlns:xlink="http://www.w3.org/1999/xlink" x="0px" y="0px"
	 viewBox="0 0 511.769 511.769" style="enable-background:new 0 0 511.769 511.769;" xml:space="preserve">
<g>
	<g>
		<path d="M454.194,0H137.995c-10.966,0-18.277,7.311-18.277,18.277v60.316H64.885c-12.794,0-25.588,10.966-25.588,23.76V486.18
			c1.828,14.622,12.795,25.588,25.588,25.588h303.406c12.795,0,25.588-10.966,25.588-23.76v-54.832h60.315
			c10.966,0,18.277-7.311,18.277-18.277V18.277C472.472,7.311,465.161,0,454.194,0z M77.679,475.214V115.148h279.645v360.065H77.679
			z M435.917,396.621h-42.038V104.182c0-12.794-10.966-23.761-25.588-23.761H156.272V36.555h279.645V396.621z"/>
	</g>
</g>
<g>
	<g>
		<path d="M328.081,126.114H106.924c-10.966,0-18.277,7.311-18.277,18.277v47.521c0,10.966,7.311,18.277,18.277,18.277h221.158
			c10.966,0,18.277-7.311,18.277-18.277v-47.521C346.358,135.253,339.047,126.114,328.081,126.114z M309.803,173.636H125.201V162.67
			h184.602V173.636z"/>
	</g>
</g>
<g>
	<g>
		<path d="M185.516,349.1h-78.593c-10.966,0-18.277,7.311-18.277,18.277v63.972c0,10.966,7.311,18.277,18.277,18.277h78.593
			c10.966,0,18.277-7.311,18.277-18.277v-63.972C203.794,356.411,196.483,349.1,185.516,349.1z M167.24,411.243L167.24,411.243
			h-42.039v-27.417h42.039V411.243z"/>
	</g>
</g>
<g>
	<g>
		<path d="M328.081,221.158H106.924c-10.966,0-18.277,7.311-18.277,18.277s7.311,18.277,18.277,18.277h221.158
			c10.966,0,18.277-7.311,18.277-18.277S339.047,221.158,328.081,221.158z"/>
	</g>
</g>
<g>
	<g>
		<path d="M328.081,285.128H106.924c-10.966,0-18.277,7.311-18.277,18.277s7.311,18.277,18.277,18.277h221.158
			c10.966,0,18.277-7.311,18.277-18.277S339.047,285.128,328.081,285.128z"/>
	</g>
</g>
<g>
	<g>
		<path d="M328.081,349.1h-95.043c-10.966,0-18.277,7.311-18.277,18.277s7.311,18.277,18.277,18.277h95.043
			c10.966,0,18.277-7.311,18.277-18.277S339.047,349.1,328.081,349.1z"/>
	</g>
</g>
<g>
	<g>
		<path d="M328.081,411.243h-95.043c-10.966,0-18.277,7.311-18.277,18.277s7.311,18.277,18.277,18.277h95.043
			c10.966,0,18.277-7.311,18.277-18.277S339.047,411.243,328.081,411.243z"/>
	</g>
</g>
<g>
</g>
<g>
</g>
<g>
</g>
<g>
</g>
<g>
</g>
<g>
</g>
<g>
</g>
<g>
</g>
<g>
</g>
<g>
</g>
<g>
</g>
<g>
</g>
<g>
</g>
<g>
</g>
<g>
</g>
</svg>
